<svg xmlns="http://www.w3.org/2000/svg" xmlns:svg="http://www.w3.org/2000/svg" id="SVGRoot" width="1027.685" height="923.051" version="1.1" viewBox="0 0 271.908 244.224"><metadata id="metadata4565"/><g id="layer1" transform="translate(-8.6935261,-15.668811)"><path id="path4577" d="m 670,566.55859 a 198.57142,198.57142 0 0 0 -0.54883,0.0195 c 2.6529,2.46057 5.06655,5.61325 7.10156,7.86329 1.12585,0.55566 2.1844,1.27542 3.37696,1.66797 2.75512,0.90692 5.60242,1.50996 8.41601,2.21484 24.6923,6.18633 4.14678,0.99206 31.68555,6.98828 13.41698,2.92142 17.83258,4.2037 30.55273,7.5332 4.4188,1.26252 8.80369,2.64789 13.25586,3.78711 5.65476,1.44694 11.3628,2.67089 17.07618,3.8711 A 198.57142,198.57142 0 0 0 670,566.55859 Z m -18.56836,1.04493 A 198.57142,198.57142 0 0 0 471.42773,765.12891 198.57142,198.57142 0 0 0 670,963.70117 198.57142,198.57142 0 0 0 862.98828,810.94141 c -0.72191,0.16266 -1.4208,0.3232 -2.24805,0.49804 -3.64633,0.77069 -7.35785,1.18899 -11.03711,1.78321 -12.90458,1.27132 -25.74328,-0.84459 -38.62304,-1.22266 -5.61513,-0.16479 -10.2766,-0.0267 -15.92578,0.0625 -8.49275,-0.3462 -17.76244,1.75938 -25.95899,-1.46875 -2.06698,-0.81407 -5.25092,-2.92514 -7.08203,-4.06641 -5.45095,-3.64327 -12.12253,-6.10467 -16.46094,-11.22461 -0.86789,-1.02421 -1.86269,-2.09564 -2.14453,-3.4082 -0.46526,-2.1668 -0.01,-4.43419 -0.0137,-6.65039 -0.93804,0.83943 0.63603,-0.41704 -0.42969,-0.91602 -0.31256,-0.14625 -0.17063,1.10098 -0.46679,0.92383 -1.6701,-0.9993 -3.02066,-6.24449 -3.69727,-8.23437 -1.1554,-2.90642 -0.41647,-5.85708 -0.28906,-8.82813 0.0794,-1.84607 0.0537,-2.92085 0.0469,-4.75781 -0.0302,-1.7012 -0.0582,-3.40269 -0.10547,-5.10352 -0.3922,-14.13667 13.89254,-14.52944 14.2793,-0.39257 0.0499,1.82082 0.0818,3.64161 0.11133,5.46289 0.003,2.26881 0.0338,3.69527 -0.0996,6.00781 -0.048,0.82757 -0.12874,1.65173 -0.22852,2.47461 -0.0113,0.0828 -0.0259,0.26675 -0.0996,0.23047 -0.12017,-0.0582 -0.1405,-0.49093 -0.17187,-0.36133 -0.0552,0.22715 0.0612,0.46378 0.0918,0.69531 0.25096,0.74672 0.59782,1.4677 0.75195,2.24024 0.0302,0.16063 -0.29012,0.29292 -0.2168,0.43945 0.43382,0.86525 1.18755,1.54016 1.63868,2.39648 2.34911,4.45912 3.03523,6.03205 2.76757,9.40235 1.32188,1.03154 2.94068,1.85166 3.89258,2.45117 3.13939,1.97722 5.22001,3.16318 8.4043,5.03125 0.26343,0.16441 3.77987,2.77427 4.95508,3.00195 6.72612,1.30311 13.51878,0.24751 20.30859,0.3711 8.53799,-0.12737 17.00542,-0.16655 25.5332,0.37695 6.49595,0.4139 11.1205,1.06651 17.7168,1.17187 3.09411,0.0495 6.18759,-0.14303 9.28125,-0.21484 3.22923,-0.50045 6.48692,-0.84269 9.6875,-1.50195 3.94294,-0.81219 6.49382,-1.48131 8.8457,-2.21875 a 198.57142,198.57142 0 0 0 2.57032,-30.26367 198.57142,198.57142 0 0 0 -63.20508,-144.94141 c -6.29262,-1.2477 -12.61655,-2.57996 -19.64258,-4.07227 -0.60586,-0.12888 -24.67469,-5.45575 -25.81055,-5.74609 -4.34978,-1.11186 -8.63262,-2.46862 -12.94922,-3.70312 -12.29926,-3.2239 -16.80198,-4.52875 -29.76172,-7.35157 -16.03701,-3.49311 -17.76044,-3.13517 -32.86328,-7.27734 -3.96109,-1.08635 -7.99448,-2.03858 -11.75976,-3.67969 -2.41829,-1.05403 -4.41378,-2.88937 -6.6211,-4.33398 -2.23441,-2.47057 -4.37616,-5.22395 -6.85742,-7.46094 -1.2153,-1.09569 -2.63295,-1.96759 -3.76367,-3.15039 -2.59372,-2.71308 -3.25903,-3.83794 -3.90625,-5.80859 z m 104.29102,217.47265 c -0.0428,-0.003 -0.0596,0.0154 -0.0332,0.0605 0.18345,0.31345 0.42956,0.60808 0.69922,0.89453 -0.0465,-0.2029 -0.0857,-0.4069 -0.14258,-0.60742 -0.0428,-0.15081 -0.39494,-0.33947 -0.52343,-0.34766 z" transform="scale(0.26458333)" style="opacity:0;fill:#139ec2;fill-opacity:.95939086;stroke:#000;stroke-width:.99999994;stroke-opacity:1"/><path id="path5124" d="M 663.57227,615.12891 A 93.571422,102.85714 0 0 0 570,717.98633 a 93.571422,102.85714 0 0 0 93.57227,102.85742 93.571422,102.85714 0 0 0 75.71679,-42.59766 c -0.13552,-0.43556 -0.28406,-0.92086 -0.38867,-1.22851 -1.1554,-2.90642 -0.41647,-5.85708 -0.28906,-8.82813 0.0794,-1.84607 0.0537,-2.92085 0.0469,-4.75781 -0.0302,-1.7012 -0.0582,-3.40269 -0.10547,-5.10352 -0.32907,-11.86145 9.67184,-14.04237 13.12891,-6.08789 a 93.571422,102.85714 0 0 0 5.46094,-34.2539 93.571422,102.85714 0 0 0 -93.57031,-102.85742 z" transform="scale(0.26458333)" style="opacity:0;fill:#139ec2;fill-opacity:.95939086;stroke:#000;stroke-width:.99999994;stroke-opacity:1"/><g style="fill:none;stroke:none;stroke-linecap:square;stroke-miterlimit:10" id="g5948" transform="matrix(0.34870429,0,0,0.36654166,157.47317,130.03014)"><g id="g5891" clip-path="url(#p.0)"><path id="path5799" d="M 0,0 H 344.40158 V 350.82416 H 0 Z" style="fill:#000;fill-opacity:0;fill-rule:nonzero"/><path id="path5801" d="m -100.8885,428.00146 c -8.52918,0 -25.02901,1.36923 -34.3971,0.82239 -9.36809,-0.54682 -15.52002,-4.3768 -21.8114,-4.1034 -6.29138,0.27341 -12.44185,2.18949 -15.93689,5.7439 -3.49506,3.55441 -5.87232,10.25134 -5.0334,15.58261 0.83889,5.33127 3.49577,11.89325 10.06678,16.405 6.57103,4.51172 15.93691,10.52832 29.3593,10.66541 13.42241,0.13705 40.549043,-5.19492 51.175113,-9.84302 10.626068,-4.64807 12.022034,-12.30374 12.581299,-18.0455 0.559265,-5.74173 -4.891747,-13.53376 -9.2257,-16.405 -4.333946,-2.87122 -8.248817,-0.82239 -16.778002,-0.82239 z" style="fill:#ea9999;fill-rule:nonzero"/><path id="path5803" d="m -100.8885,428.00146 c -8.52918,0 -25.02901,1.36923 -34.3971,0.82239 -9.36809,-0.54682 -15.52002,-4.3768 -21.8114,-4.1034 -6.29138,0.27341 -12.44185,2.18949 -15.93689,5.7439 -3.49506,3.55441 -5.87232,10.25134 -5.0334,15.58261 0.83889,5.33127 3.49577,11.89325 10.06678,16.405 6.57103,4.51172 15.93691,10.52832 29.3593,10.66541 13.42241,0.13705 40.549043,-5.19492 51.175113,-9.84302 10.626068,-4.64807 12.022034,-12.30374 12.581299,-18.0455 0.559265,-5.74173 -4.891747,-13.53376 -9.2257,-16.405 -4.333946,-2.87122 -8.248817,-0.82239 -16.778002,-0.82239 z" style="fill-rule:nonzero;stroke:#351c75;stroke-width:2;stroke-linecap:butt;stroke-linejoin:round"/><path id="path5805" d="m 104.77632,214.76306 c 0.25817,1.3443 -0.11733,6.41159 1.54903,8.06578 1.66637,1.65418 6.45089,2.3783 8.44917,1.85931 1.99827,-0.51898 2.94594,-3.38729 3.54049,-4.97322 0.59454,-1.58592 0.0223,-3.78526 0.0268,-4.54231" style="fill:#fff;fill-rule:nonzero"/><path id="path5807" d="m 91.136765,212.9905 c -0.145767,1.35493 -2.006226,6.2095 -0.874611,8.12959 1.131622,1.92008 5.568726,3.52074 7.664322,3.39093 2.095584,-0.12982 3.863264,-2.73991 4.909224,-4.16984 1.04596,-1.42992 1.13878,-3.67475 1.36654,-4.4097" style="fill:#fff;fill-rule:nonzero"/><path id="path5809" d="m 132.23207,214.38727 c -0.14577,1.35503 0.65918,6.39203 -0.8746,8.13019 -1.53377,1.73817 -6.27747,2.71185 -8.32804,2.29883 -2.05059,-0.41304 -3.24446,-3.22562 -3.97542,-4.77703 -0.73097,-1.5514 -0.342,-3.77618 -0.4104,-4.53142" style="fill:#fff;fill-rule:nonzero"/><path id="path5811" d="m 133.46577,214.83649 c 0.42435,1.3172 0.68179,6.38902 2.54607,7.90317 1.86425,1.51414 6.71566,1.85615 8.63957,1.18167 1.9239,-0.6745 2.50972,-3.60353 2.90384,-5.22861 0.39412,-1.62507 -0.44925,-3.76823 -0.5391,-4.52186" style="fill:#fff;fill-rule:nonzero"/><path id="path5813" d="m 76.94875,210.47221 c 0,1.47151 -1.33316,6.84235 0,8.82909 1.333153,1.98674 5.925148,3.38565 7.998947,3.09133 2.073807,-0.29429 3.555092,-3.23847 4.443863,-4.85714 0.888779,-1.61867 0.740646,-4.0457 0.888779,-4.85485" style="fill:#fff;fill-rule:nonzero"/><path id="path5815" d="m -43.880394,337.54474 c -3.603222,0 -10.573711,1.2988 -14.53133,0.78009 -3.957623,-0.51871 -6.556553,-4.15164 -9.214397,-3.8923 -2.657852,0.25937 -5.256165,2.07684 -6.732674,5.44839 -1.476509,3.37155 -2.480796,9.72394 -2.126396,14.78092 0.354393,5.05697 1.476814,11.28137 4.2528,15.561 2.775978,4.2796 6.732666,9.98666 12.403065,10.1167 5.670403,0.13 17.130264,-4.92767 21.619331,-9.33661 4.489067,-4.40897 5.078804,-11.67075 5.315071,-17.1171 0.236267,-5.44635 -2.066559,-12.83749 -3.897472,-15.561 -1.83091,-2.72351 -3.484776,-0.78009 -7.087998,-0.78009 z" style="fill:#000;fill-opacity:0;fill-rule:nonzero"/><path id="path5817" d="m -43.880394,337.54474 c -3.603222,0 -10.573711,1.2988 -14.53133,0.78009 -3.957623,-0.51871 -6.556553,-4.15164 -9.214397,-3.8923 -2.657852,0.25937 -5.256165,2.07684 -6.732674,5.44839 -1.476509,3.37155 -2.480796,9.72394 -2.126396,14.78092 0.354393,5.05697 1.476814,11.28137 4.2528,15.561 2.775978,4.2796 6.732666,9.98666 12.403065,10.1167 5.670403,0.13 17.130264,-4.92767 21.619331,-9.33661 4.489067,-4.40897 5.078804,-11.67075 5.315071,-17.1171 0.236267,-5.44635 -2.066559,-12.83749 -3.897472,-15.561 -1.83091,-2.72351 -3.484776,-0.78009 -7.087998,-0.78009 z" style="fill-rule:nonzero;stroke:#351c75;stroke-width:8;stroke-linecap:butt;stroke-linejoin:round"/><path id="path5819" d="m -61.10701,240.54793 c 1.291336,2.20947 0.498837,4.92889 -0.524998,7.2115 -1.023834,2.28263 -3.239002,5.51911 -5.618,6.48421 -2.378997,0.96509 -6.639671,0.63103 -8.655998,-0.6936 -2.016334,-1.32464 -3.476669,-4.11634 -3.442001,-7.2542 0.03467,-3.13788 1.988663,-9.60747 3.650002,-11.573 1.661331,-1.96554 3.886161,-1.19105 6.317993,-0.2202 2.431839,0.97084 6.98167,3.83583 8.273002,6.04529 z" style="fill:#b4a7d6;fill-rule:nonzero"/><path id="path5821" d="m -139.67216,330.83362 c 1.89255,-1.36206 5.5056,-1.83173 8.25839,-1.40903 2.75281,0.4227 6.59525,1.97263 8.25841,3.94522 1.66315,1.9726 1.89255,5.72992 1.7205,7.89038 -0.17205,2.1605 -0.4588,3.99219 -2.7528,5.07242 -2.294,1.08023 -7.97165,2.01956 -11.0112,1.409 -3.03955,-0.61057 -5.9644,-3.38159 -7.22611,-5.07239 -1.26169,-1.69082 -0.80288,-3.09982 -0.3441,-5.07242 0.4588,-1.97259 1.20436,-5.40115 3.09691,-6.76318 z" style="fill:#b4a7d6;fill-rule:nonzero"/><path id="path5823" d="m -75.21578,113.42292 c -4.625549,9.10225 -1.733551,31.81284 -5.985596,40.5973 -4.252052,8.78447 -19.695204,10.04487 -19.526704,12.10951 0.1685,2.06462 17.677301,-1.88065 20.537698,0.27829 2.860405,2.15894 -5.95105,12.43802 -3.375297,12.67531 2.575752,0.23727 12.799202,-10.35997 18.829803,-11.2516 6.030598,-0.89164 14.896446,7.50682 17.353798,5.90179 2.457348,-1.60501 -4.90765,-12.56107 -2.609703,-15.53189 2.297951,-2.97084 15.54335,-0.81574 16.3974,-2.29311 0.854049,-1.47737 -10.184597,0.89318 -11.273098,-6.5711 -1.088501,-7.46427 6.172199,-29.89271 4.7421,-38.2145 -1.4301,-8.32178 -7.474301,-12.099529 -13.322701,-11.716198 -5.8484,0.383331 -17.14215,4.913948 -21.7677,14.016198 z" style="fill:#8e7cc3;fill-rule:nonzero"/><path id="path5825" d="m -75.21578,113.42292 c -4.625549,9.10225 -1.733551,31.81284 -5.985596,40.5973 -4.252052,8.78447 -19.695204,10.04487 -19.526704,12.10951 0.1685,2.06462 17.677301,-1.88065 20.537698,0.27829 2.860405,2.15894 -5.95105,12.43802 -3.375297,12.67531 2.575752,0.23727 12.799202,-10.35997 18.829803,-11.2516 6.030598,-0.89164 14.896446,7.50682 17.353798,5.90179 2.457348,-1.60501 -4.90765,-12.56107 -2.609703,-15.53189 2.297951,-2.97084 15.54335,-0.81574 16.3974,-2.29311 0.854049,-1.47737 -10.184597,0.89318 -11.273098,-6.5711 -1.088501,-7.46427 6.172199,-29.89271 4.7421,-38.2145 -1.4301,-8.32178 -7.474301,-12.099529 -13.322701,-11.716198 -5.8484,0.383331 -17.14215,4.913948 -21.7677,14.016198 z" style="fill-rule:nonzero;stroke:#8e7cc3;stroke-width:8;stroke-linecap:butt;stroke-linejoin:round"/><path id="path5827" d="m -130.10175,197.2444 c 4.78359,8.29044 4.26593,30.78352 8.69959,38.8111 4.43367,8.02755 17.86801,7.32125 17.90241,9.35429 0.0344,2.03304 -15.416,0.38177 -17.696,2.8439 -2.28001,2.46213 6.21773,11.37503 4.016,11.9289 -2.20174,0.55389 -11.94547,-8.49216 -17.2264,-8.60559 -5.28094,-0.11344 -12.1992,9.18121 -14.45921,7.92498 -2.26,-1.25619 3.14061,-12.85516 0.8992,-15.46229 -2.24139,-2.60713 -13.48206,1.15217 -14.3476,-0.1805 -0.86554,-1.33267 8.86521,-0.40542 9.15441,-7.8155 0.2892,-7.41007 -7.92847,-28.35642 -7.41921,-36.6449 0.50927,-8.28848 5.39534,-12.72693 10.47481,-13.086 5.07945,-0.35907 15.2184,2.64116 20.002,10.93161 z" style="fill:#8e7cc3;fill-rule:nonzero"/><path id="path5829" d="m -130.10175,197.2444 c 4.78359,8.29044 4.26593,30.78352 8.69959,38.8111 4.43367,8.02755 17.86801,7.32125 17.90241,9.35429 0.0344,2.03304 -15.416,0.38177 -17.696,2.8439 -2.28001,2.46213 6.21773,11.37503 4.016,11.9289 -2.20174,0.55389 -11.94547,-8.49216 -17.2264,-8.60559 -5.28094,-0.11344 -12.1992,9.18121 -14.45921,7.92498 -2.26,-1.25619 3.14061,-12.85516 0.8992,-15.46229 -2.24139,-2.60713 -13.48206,1.15217 -14.3476,-0.1805 -0.86554,-1.33267 8.86521,-0.40542 9.15441,-7.8155 0.2892,-7.41007 -7.92847,-28.35642 -7.41921,-36.6449 0.50927,-8.28848 5.39534,-12.72693 10.47481,-13.086 5.07945,-0.35907 15.2184,2.64116 20.002,10.93161 z" style="fill-rule:nonzero;stroke:#8e7cc3;stroke-width:8;stroke-linecap:butt;stroke-linejoin:round"/><path id="path5831" d="m -131.03236,72.09678 c 6.30688,6.272667 3.5021,39.3723 7.8008,51.604 4.29869,12.2317 18.5052,18.09535 17.9914,21.78621 -0.5138,3.69084 -15.9642,-2.29891 -21.0742,0.35888 -5.11,2.65781 -5.94697,15.35187 -9.5858,15.58791 -3.63884,0.23604 -7.10908,-12.59221 -12.24721,-14.17169 -5.1381,-1.5795 -16.96612,7.27823 -18.58149,4.69479 -1.61537,-2.58343 7.94664,-9.21338 8.8893,-20.1954 0.94267,-10.98202 -7.70116,-35.752584 -3.2333,-45.696704 4.46787,-9.944115 23.73362,-20.240662 30.0405,-13.967996 z" style="fill:#8e7cc3;fill-rule:nonzero"/><path id="path5833" d="m -131.03236,72.09678 c 6.30688,6.272667 3.5021,39.3723 7.8008,51.604 4.29869,12.2317 18.5052,18.09535 17.9914,21.78621 -0.5138,3.69084 -15.9642,-2.29891 -21.0742,0.35888 -5.11,2.65781 -5.94697,15.35187 -9.5858,15.58791 -3.63884,0.23604 -7.10908,-12.59221 -12.24721,-14.17169 -5.1381,-1.5795 -16.96612,7.27823 -18.58149,4.69479 -1.61537,-2.58343 7.94664,-9.21338 8.8893,-20.1954 0.94267,-10.98202 -7.70116,-35.752584 -3.2333,-45.696704 4.46787,-9.944115 23.73362,-20.240662 30.0405,-13.967996 z" style="fill-rule:nonzero;stroke:#8e7cc3;stroke-width:8;stroke-linecap:butt;stroke-linejoin:round"/><path id="path5835" d="m 88.03707,58.510784 c 13.5,-21.666664 37,-27.833332 66.00001,-28.999998 29,-1.166666 87.16666,-7.666666 108,21.999998 20.83331,29.666668 16.66666,117.166666 17,155.999996 0.33331,38.83333 3,60.66667 -15,76.99999 -18,16.33334 -63.83334,21.5 -93,21 -29.16667,-0.5 -65.66667,0.33334 -82.00001,-24 -16.333328,-24.33331 -15.833328,-84.83331 -16,-121.99999 -0.166664,-37.16667 1.5,-79.333332 15,-100.999996 z" style="fill:#8e7cc3;fill-rule:nonzero"/><path id="path5837" d="m 129.87332,89.34977 v 0 c 0,-9.851356 8.20592,-17.837456 18.32844,-17.837456 v 0 c 4.86101,0 9.52292,1.879295 12.96018,5.224464 3.43724,3.345177 5.36827,7.882202 5.36827,12.612991 v 0 c 0,9.851357 -8.20592,17.837461 -18.32844,17.837461 v 0 c -10.12253,0 -18.32845,-7.986104 -18.32845,-17.837461 z" style="fill:#000;fill-rule:nonzero"/><path id="path5839" d="m 145.67503,92.92569 v 0 c 0,-3.609657 3.09175,-6.535866 6.90564,-6.535866 v 0 c 1.8315,0 3.58797,0.688599 4.88303,1.914314 1.29505,1.225708 2.02262,2.888131 2.02262,4.621552 v 0 c 0,3.609657 -3.09176,6.535858 -6.90565,6.535858 v 0 c -3.81389,0 -6.90564,-2.926201 -6.90564,-6.535858 z" style="fill:#fff;fill-rule:nonzero"/><path id="path5841" d="m 136.10165,84.053696 v 0 c 2.04218,-2.089516 5.01312,-2.568512 6.63582,-1.069855 v 0 c 0.77925,0.719673 1.13701,1.808487 0.99457,3.026902 -0.14244,1.218414 -0.77341,2.466629 -1.75409,3.470054 v 0 c -2.04216,2.089516 -5.01313,2.568512 -6.63582,1.069855 v 0 c -1.62268,-1.49865 -1.28264,-4.40744 0.75952,-6.496956 z" style="fill:#fff;fill-rule:nonzero"/><path id="path5843" d="m 140.08437,76.24918 v 0 c 0.65681,-1.401962 2.60315,-1.911438 4.34726,-1.13794 v 0 c 1.74412,0.773499 2.62556,2.537056 1.96876,3.939019 v 0 c -0.65679,1.40197 -2.60313,1.911445 -4.34725,1.137947 v 0 c -1.74413,-0.773499 -2.62557,-2.537064 -1.96877,-3.939026 z" style="fill:#fff;fill-rule:nonzero"/><path id="path5845" d="m 174.35469,85.16425 v 0 c 2.2491,-9.591347 12.06103,-15.492996 21.91559,-13.181694 v 0 c 4.73231,1.109932 8.84176,4.004097 11.4243,8.045814 2.58255,4.041725 3.42663,8.899925 2.34657,13.505852 v 0 c -2.24908,9.591358 -12.06103,15.493008 -21.91557,13.181698 v 0 C 178.27104,104.40461 172.1056,94.755604 174.35469,85.16425 Z" style="fill:#000;fill-rule:nonzero"/><path id="path5847" d="m 188.92168,92.253845 v 0 c 0.8241,-3.514389 4.50207,-5.65741 8.215,-4.786575 v 0 c 1.783,0.41819 3.33577,1.48967 4.31671,2.978737 0.98094,1.489067 1.30971,3.273742 0.91395,4.96141 v 0 c -0.82409,3.514389 -4.50206,5.657413 -8.21498,4.786573 v 0 c -3.71292,-0.870832 -6.05478,-4.425756 -5.23068,-7.940145 z" style="fill:#fff;fill-rule:nonzero"/><path id="path5849" d="m 181.62726,81.43009 v 0 c 2.46515,-1.568077 5.46681,-1.356056 6.70439,0.473557 v 0 c 0.59432,0.878608 0.69402,2.02037 0.27719,3.17411 -0.41684,1.153732 -1.31607,2.224937 -2.49988,2.977951 v 0 c -2.46514,1.568077 -5.46681,1.356064 -6.70439,-0.473549 v 0 c -1.23759,-1.829613 -0.24246,-4.583984 2.22269,-6.152069 z" style="fill:#fff;fill-rule:nonzero"/><path id="path5851" d="m 187.28633,74.740944 v 0 c 0.95949,-1.214989 2.97061,-1.266609 4.49196,-0.11528 v 0 c 1.52136,1.151321 1.97685,3.069595 1.01735,4.284592 v 0 c -0.95949,1.214996 -2.97061,1.266609 -4.49196,0.115287 v 0 c -1.52136,-1.151321 -1.97684,-3.069603 -1.01735,-4.284599 z" style="fill:#fff;fill-rule:nonzero"/><path id="path5853" d="m 199.37923,122.43191 c -8.52919,0 -25.02902,1.36924 -34.39711,0.8224 -9.36809,-0.54683 -15.52002,-4.37681 -21.8114,-4.1034 -6.29138,0.27342 -12.44185,2.18949 -15.9369,5.74391 -3.49505,3.55442 -5.8723,10.25133 -5.0334,15.58258 0.83891,5.33127 3.49579,11.89327 10.06681,16.405 6.57102,4.51174 15.93689,10.52834 29.3593,10.66541 13.42239,0.13707 40.54903,-5.19492 51.1751,-9.843 10.62606,-4.64808 12.02203,-12.30375 12.58129,-18.04549 0.55927,-5.74176 -4.89175,-13.53378 -9.22569,-16.40501 -4.33395,-2.87123 -8.24882,-0.8224 -16.778,-0.8224 z" style="fill:#ea9999;fill-rule:nonzero"/><path id="path5855" d="m 199.37923,122.43191 c -8.52919,0 -25.02902,1.36924 -34.39711,0.8224 -9.36809,-0.54683 -15.52002,-4.37681 -21.8114,-4.1034 -6.29138,0.27342 -12.44185,2.18949 -15.9369,5.74391 -3.49505,3.55442 -5.8723,10.25133 -5.0334,15.58258 0.83891,5.33127 3.49579,11.89327 10.06681,16.405 6.57102,4.51174 15.93689,10.52834 29.3593,10.66541 13.42239,0.13707 40.54903,-5.19492 51.1751,-9.843 10.62606,-4.64808 12.02203,-12.30375 12.58129,-18.04549 0.55927,-5.74176 -4.89175,-13.53378 -9.22569,-16.40501 -4.33395,-2.87123 -8.24882,-0.8224 -16.778,-0.8224 z" style="fill-rule:nonzero;stroke:#351c75;stroke-width:2;stroke-linecap:butt;stroke-linejoin:round"/><path id="path5857" d="m 166.31175,125.80244 c 0.25818,1.34429 -0.11732,6.41158 1.54904,8.06577 1.66637,1.65418 6.45088,2.3783 8.44916,1.85932 1.99828,-0.51898 2.94595,-3.3873 3.5405,-4.97322 0.59454,-1.58593 0.0223,-3.78526 0.0268,-4.54231" style="fill:#fff;fill-rule:nonzero"/><path id="path5859" d="m 152.6722,124.02986 c -0.14577,1.35493 -2.00623,6.2095 -0.8746,8.12959 1.13162,1.92008 5.56872,3.52074 7.66432,3.39093 2.09558,-0.12982 3.86326,-2.73991 4.90922,-4.16984 1.04596,-1.42992 1.13878,-3.67475 1.36654,-4.4097" style="fill:#fff;fill-rule:nonzero"/><path id="path5861" d="m 193.76752,125.42664 c -0.14578,1.35503 0.65916,6.39202 -0.87462,8.1302 -1.53377,1.73816 -6.27746,2.71184 -8.32803,2.29881 -2.05058,-0.41304 -3.24446,-3.22561 -3.97542,-4.77702 -0.73097,-1.55141 -0.34199,-3.77618 -0.4104,-4.53142" style="fill:#fff;fill-rule:nonzero"/><path id="path5863" d="m 195.0012,125.87585 c 0.42435,1.3172 0.68179,6.38903 2.54607,7.90317 1.86427,1.51415 6.71566,1.85616 8.63957,1.18167 1.9239,-0.6745 2.50972,-3.60353 2.90384,-5.2286 0.39413,-1.62508 -0.44925,-3.76823 -0.5391,-4.52188" style="fill:#fff;fill-rule:nonzero"/><path id="path5865" d="m 138.48418,121.51159 c 0,1.47151 -1.33315,6.84235 0,8.82909 1.33316,1.98673 5.92516,3.38564 7.99896,3.09134 2.07381,-0.29431 3.55509,-3.23849 4.44387,-4.85716 0.88876,-1.61867 0.74064,-4.0457 0.88876,-4.85484" style="fill:#fff;fill-rule:nonzero"/><path id="path5867" d="m 199.37775,124.75394 c -8.5294,0 -25.02966,1.29884 -34.39798,0.78012 -9.36833,-0.51871 -15.52042,-4.15178 -21.81197,-3.89242 -6.29155,0.25936 -12.44217,2.07691 -15.93731,5.44857 -3.49514,3.37166 -5.87245,9.72425 -5.03353,14.78139 0.83892,5.05716 3.49588,11.28175 10.06707,15.56151 6.57118,4.27975 15.9373,9.98701 29.36004,10.11702 13.42275,0.13002 40.55008,-4.92781 51.17642,-9.3369 10.62635,-4.40909 12.02234,-11.67113 12.58162,-17.11766 0.55928,-5.44653 -4.89187,-12.83791 -9.22593,-15.56151 -4.33406,-2.7236 -8.24903,-0.78012 -16.77843,-0.78012 z" style="fill:#000;fill-opacity:0;fill-rule:nonzero"/><path id="path5869" d="m 199.37775,124.75394 c -8.5294,0 -25.02966,1.29884 -34.39798,0.78012 -9.36833,-0.51871 -15.52042,-4.15178 -21.81197,-3.89242 -6.29155,0.25936 -12.44217,2.07691 -15.93731,5.44857 -3.49514,3.37166 -5.87245,9.72425 -5.03353,14.78139 0.83892,5.05716 3.49588,11.28175 10.06707,15.56151 6.57118,4.27975 15.9373,9.98701 29.36004,10.11702 13.42275,0.13002 40.55008,-4.92781 51.17642,-9.3369 10.62635,-4.40909 12.02234,-11.67113 12.58162,-17.11766 0.55928,-5.44653 -4.89187,-12.83791 -9.22593,-15.56151 -4.33406,-2.7236 -8.24903,-0.78012 -16.77843,-0.78012 z" style="fill-rule:nonzero;stroke:#351c75;stroke-width:8;stroke-linecap:butt;stroke-linejoin:round"/><path id="path5871" d="m 116.25401,333.56827 c -4.92799,-7.89548 1.21345,-34.8656 -1.1768,-46.21582 -2.39025,-11.35019 -14.36203,-19.47488 -13.1647,-21.88538 1.19733,-2.41052 16.199,8.96341 20.34869,7.42231 4.14971,-1.54114 2.25213,-16.93064 4.5495,-16.66901 2.29739,0.2616 4.88507,17.50513 9.23481,18.23871 4.34974,0.73355 14.84038,-14.75974 16.86359,-13.83731 2.02322,0.92242 -7.45088,15.01129 -4.72429,19.37179 2.72658,4.36051 21.32285,4.88428 21.0838,6.79129 -0.23906,1.90705 -18.41418,-3.33914 -22.51811,4.65091 -4.10391,7.99008 2.97736,36.26743 -2.10539,43.28949 -5.08275,7.0221 -23.46312,6.73847 -28.3911,-1.15698 z" style="fill:#8e7cc3;fill-rule:nonzero"/><path id="path5873" d="m 116.25401,333.56827 c -4.92799,-7.89548 1.21345,-34.8656 -1.1768,-46.21582 -2.39025,-11.35019 -14.36203,-19.47488 -13.1647,-21.88538 1.19733,-2.41052 16.199,8.96341 20.34869,7.42231 4.14971,-1.54114 2.25213,-16.93064 4.5495,-16.66901 2.29739,0.2616 4.88507,17.50513 9.23481,18.23871 4.34974,0.73355 14.84038,-14.75974 16.86359,-13.83731 2.02322,0.92242 -7.45088,15.01129 -4.72429,19.37179 2.72658,4.36051 21.32285,4.88428 21.0838,6.79129 -0.23906,1.90705 -18.41418,-3.33914 -22.51811,4.65091 -4.10391,7.99008 2.97736,36.26743 -2.10539,43.28949 -5.08275,7.0221 -23.46312,6.73847 -28.3911,-1.15698 z" style="fill-rule:nonzero;stroke:#8e7cc3;stroke-width:8;stroke-linecap:butt;stroke-linejoin:round"/><path id="path5875" d="m 244.28233,179.21017 c 2.51779,-8.53172 32.96629,-21.81036 41.6808,-31.4104 8.71451,-9.60002 7.11536,-24.88598 10.6062,-26.1898 3.49085,-1.30381 5.57071,15.1363 10.3389,18.36691 4.76819,3.23059 16.332,-2.07187 18.27029,1.01669 1.9383,3.08858 -7.69494,12.24365 -6.6405,17.51471 1.05444,5.27104 14.47131,11.4617 12.96719,14.11159 -1.50409,2.6499 -11.88363,-2.60724 -21.99179,1.78781 -10.10815,4.39505 -27.78524,23.78208 -38.6571,24.58249 -10.87186,0.80042 -29.0918,-11.24826 -26.57399,-19.78 z" style="fill:#8e7cc3;fill-rule:nonzero"/><path id="path5877" d="m 244.28233,179.21017 c 2.51779,-8.53172 32.96629,-21.81036 41.6808,-31.4104 8.71451,-9.60002 7.11536,-24.88598 10.6062,-26.1898 3.49085,-1.30381 5.57071,15.1363 10.3389,18.36691 4.76819,3.23059 16.332,-2.07187 18.27029,1.01669 1.9383,3.08858 -7.69494,12.24365 -6.6405,17.51471 1.05444,5.27104 14.47131,11.4617 12.96719,14.11159 -1.50409,2.6499 -11.88363,-2.60724 -21.99179,1.78781 -10.10815,4.39505 -27.78524,23.78208 -38.6571,24.58249 -10.87186,0.80042 -29.0918,-11.24826 -26.57399,-19.78 z" style="fill-rule:nonzero;stroke:#8e7cc3;stroke-width:8;stroke-linecap:butt;stroke-linejoin:round"/><path id="path5879" d="m 87.957756,191.14702 c -8.836685,1.01582 -32.9563,-21.82494 -45.197598,-26.09601 -12.241302,-4.27106 -25.686102,3.17365 -28.250202,0.46961 -2.564099,-2.70403 11.755201,-11.04221 12.865601,-16.69381 1.110399,-5.65159 -8.288633,-14.22473 -6.203199,-17.21579 2.085432,-2.99107 14.276182,2.2996 18.7158,-0.7306 4.439617,-3.03021 4.895134,-17.79981 7.921901,-17.4506 3.026764,0.3492 2.243664,11.9581 10.238697,19.5458 7.995037,7.58769 32.74667,16.28517 37.731503,25.98039 4.984831,9.69524 1.014183,31.17517 -7.822503,32.19101 z" style="fill:#8e7cc3;fill-rule:nonzero"/><path id="path5881" d="m 87.957756,191.14702 c -8.836685,1.01582 -32.9563,-21.82494 -45.197598,-26.09601 -12.241302,-4.27106 -25.686102,3.17365 -28.250202,0.46961 -2.564099,-2.70403 11.755201,-11.04221 12.865601,-16.69381 1.110399,-5.65159 -8.288633,-14.22473 -6.203199,-17.21579 2.085432,-2.99107 14.276182,2.2996 18.7158,-0.7306 4.439617,-3.03021 4.895134,-17.79981 7.921901,-17.4506 3.026764,0.3492 2.243664,11.9581 10.238697,19.5458 7.995037,7.58769 32.74667,16.28517 37.731503,25.98039 4.984831,9.69524 1.014183,31.17517 -7.822503,32.19101 z" style="fill-rule:nonzero;stroke:#8e7cc3;stroke-width:8;stroke-linecap:butt;stroke-linejoin:round"/><path id="path5883" d="m 240.06555,328.95926 c 3.88295,-8.54584 -6.14734,-34.34351 -5.3246,-45.93521 0.82275,-11.59171 11.81502,-21.40506 10.26111,-23.61499 -1.55393,-2.20993 -15.15993,11.26831 -19.58461,10.35538 -4.42468,-0.91294 -4.6711,-16.43142 -6.96349,-15.83298 -2.2924,0.59842 -2.4842,18.05466 -6.79091,19.42358 -4.3067,1.36893 -17.12806,-12.42221 -19.0493,-11.20999 -1.92123,1.21222 9.6714,13.76297 7.5219,18.4834 -2.14949,4.72043 -20.93021,7.98624 -20.4189,9.8392 0.51132,1.85297 18.19905,-6.02664 23.4868,1.2786 5.28775,7.30524 2.09604,36.35065 8.2397,42.55279 6.14368,6.20218 24.73935,3.20603 28.6223,-5.33978 z" style="fill:#8e7cc3;fill-rule:nonzero"/><path id="path5885" d="m 240.06555,328.95926 c 3.88295,-8.54584 -6.14734,-34.34351 -5.3246,-45.93521 0.82275,-11.59171 11.81502,-21.40506 10.26111,-23.61499 -1.55393,-2.20993 -15.15993,11.26831 -19.58461,10.35538 -4.42468,-0.91294 -4.6711,-16.43142 -6.96349,-15.83298 -2.2924,0.59842 -2.4842,18.05466 -6.79091,19.42358 -4.3067,1.36893 -17.12806,-12.42221 -19.0493,-11.20999 -1.92123,1.21222 9.6714,13.76297 7.5219,18.4834 -2.14949,4.72043 -20.93021,7.98624 -20.4189,9.8392 0.51132,1.85297 18.19905,-6.02664 23.4868,1.2786 5.28775,7.30524 2.09604,36.35065 8.2397,42.55279 6.14368,6.20218 24.73935,3.20603 28.6223,-5.33978 z" style="fill-rule:nonzero;stroke:#8e7cc3;stroke-width:8;stroke-linecap:butt;stroke-linejoin:round"/><path id="path5887" d="m 210.52235,185.22841 c 12.27232,4.6382 16.18954,17.49744 17.79311,29.3678 1.60356,11.87037 0.29115,30.99321 -8.17171,41.85441 -8.46285,10.86118 -29.41351,22.36454 -42.60539,23.31281 -13.19188,0.94824 -27.89363,-5.42642 -36.5459,-17.62323 -8.65227,-12.19679 -17.64923,-42.99539 -15.36771,-55.55759 2.28152,-12.56219 14.9072,-16.25656 29.05681,-19.8156 14.1496,-3.55903 43.56848,-6.1768 55.84079,-1.5386 z" style="fill:#b4a7d6;fill-rule:nonzero"/><path id="path5889" d="m 117.47374,47.001904 c 13.53467,-0.364597 42.29584,-4.557499 62.9362,-4.375198 20.64037,0.1823 49.90909,9.8442 60.90601,5.468998 10.9969,-4.375199 7.27487,-28.256496 5.07548,-31.720198 -2.19937,-3.4637 -13.19629,12.578699 -18.27179,10.938 -5.0755,-1.6407 -7.10569,-19.8706994 -12.18119,-20.7822004 -5.0755,-0.9114995 -11.67366,15.3131994 -18.27181,15.3131994 -6.59814,0 -15.05731,-16.0423984 -21.31709,-15.3131994 -6.2598,0.7292004 -9.64347,19.3238004 -16.24161,19.6884004 -6.59814,0.364599 -17.59506,-17.6830984 -23.34731,-17.5008004 -5.75222,0.1822996 -5.75222,17.1362004 -11.16609,18.5945994 -5.41387,1.4584 -16.91833,-12.760999 -21.3171,-9.8442 -4.398763,2.916801 -7.274884,22.4229 -5.075498,27.345 2.199378,4.9221 4.737128,2.5522 18.271798,2.187599 z" style="fill:#8e7cc3;fill-rule:nonzero"/></g></g><path style="opacity:1;fill:#fff;fill-opacity:1;stroke:none;stroke-width:.26458332;stroke-opacity:1" id="path6015" d="m 155.34821,146.689 a 32.127975,46.680061 0 0 1 -32.11718,46.68005 32.127975,46.680061 0 0 1 -32.13876,-46.64869 32.127975,46.680061 0 0 1 32.09558,-46.7114 32.127975,46.680061 0 0 1 32.16033,46.6173 l -32.12794,0.0627 z"/><path style="opacity:1;fill:#fff;fill-opacity:1;stroke:none;stroke-width:.26458332;stroke-opacity:1" id="path6017" d="m 157.99405,223.60715 a 40.82143,36.285713 0 0 1 -40.80771,36.28571 40.82143,36.285713 0 0 1 -40.835138,-36.26133 40.82143,36.285713 0 0 1 40.780278,-36.31008 40.82143,36.285713 0 0 1 40.86254,36.23693 l -40.8214,0.0488 z"/><path style="opacity:1;fill:#00e4ff;fill-opacity:1;stroke:none;stroke-width:.26458332;stroke-opacity:1" id="path6041" d="m 77.10714,134.40477 a 0.37797621,0.37797621 0 0 1 -0.189129,0.32742 0.37797621,0.37797621 0 0 1 -0.378117,-2.5e-4 0.37797621,0.37797621 0 0 1 -0.188706,-0.32766 l 0.377976,4.9e-4 z"/><path style="opacity:1;fill:#000;fill-opacity:1;stroke:none;stroke-width:.26458332;stroke-opacity:1" id="path6055" d="m 166.16288,110.43652 c -0.0512,1.27018 -0.0952,2.53758 0.26886,3.76577 0.3484,1.04289 0.89718,2.00244 1.42282,2.96359 0.41518,0.7488 1.02807,1.07408 1.84201,1.20229 0.76847,0.0721 1.54232,0.0509 2.3132,0.0458 0.8888,-0.0104 1.77759,-0.0151 2.66644,-0.0124 1.04823,0.005 2.09647,-8e-4 3.14469,-0.004 1.04262,0.008 2.07854,-0.0799 3.09052,0.20583 0.87175,0.20556 1.56331,0.76804 2.19866,1.3713 0.44743,0.54846 0.68024,1.22617 1.01332,1.84714 0.35722,0.6871 0.46596,1.4467 0.52075,2.20848 0.0435,0.85393 0.0422,1.70929 0.0427,2.56409 -7.9e-4,0.77147 -0.003,1.54295 -0.003,2.31443 -0.002,0.77102 0.002,1.54205 -0.004,2.31305 0.003,0.76586 -0.0732,1.58853 0.31909,2.27643 0.0606,0.0534 0.12111,0.10688 0.18166,0.16032 0,0 -4.795,2.92728 -4.795,2.92728 v 0 c -0.0844,-0.0965 -0.16877,-0.19293 -0.25315,-0.2894 -0.42485,-0.78269 -0.47107,-1.65453 -0.44199,-2.53244 -0.006,-0.77011 -0.002,-1.54025 -0.003,-2.31038 0.001,-0.77221 0.003,-1.54441 0.007,-2.31661 0.004,-0.84339 0.0118,-1.68731 -0.0237,-2.53019 -0.043,-0.68243 -0.10093,-1.37287 -0.41742,-1.99277 -0.30572,-0.56682 -0.52177,-1.18338 -0.91313,-1.69145 -0.59463,-0.53628 -1.21655,-0.99371 -2.02547,-1.13701 -0.99745,-0.17563 -2.01078,-0.0835 -3.01923,-0.10002 -1.04586,-0.003 -2.09176,-0.008 -3.1376,7.9e-4 -0.89131,0.008 -1.78263,0.014 -2.67396,0.0197 -0.80037,0.004 -1.61023,0.0268 -2.39733,-0.14382 -0.91049,-0.26491 -1.60595,-0.77123 -2.06877,-1.61994 -0.54056,-0.99648 -1.11939,-1.98556 -1.47405,-3.06716 -0.38758,-1.27618 -0.3855,-2.56702 -0.37915,-3.89195 0,0 4.99839,-2.5468 4.99839,-2.5468 z"/><path style="opacity:1;fill:#000;fill-opacity:1;stroke:none;stroke-width:.26458332;stroke-opacity:1" id="path6057" d="m 145.17404,135.57619 c 0.43862,1.18759 1.02534,2.29649 1.64997,3.39332 0.50194,0.83342 1.23076,1.48458 1.86143,2.21364 0.60267,0.62077 1.0394,1.33631 1.74298,1.85477 0.8791,0.45853 1.8866,0.53068 2.8597,0.58359 1.0407,0.0317 2.08218,0.0243 3.1232,0.0175 1.12906,-0.0567 2.28184,-0.1436 3.39383,-0.36366 0.89637,-0.33103 1.80346,-0.60178 2.75441,-0.70619 0.96753,-0.0716 1.93801,-0.0814 2.9077,-0.086 1.00052,-0.0199 1.99556,-0.0167 2.95839,0.27975 0.86271,0.244 1.56708,0.80522 2.18289,1.43644 0.66558,0.7467 0.80442,1.66919 0.89002,2.62741 0.0206,0.90895 0.0341,1.78665 0.29402,2.66148 0.26131,0.67832 0.729,1.30594 1.31505,1.73864 0.59159,0.32061 1.27543,0.32407 1.93136,0.34294 0.51185,0.008 1.02378,0.003 1.53567,0.002 0,0 -4.52904,3.29289 -4.52904,3.29289 v 0 c -0.52063,0.003 -1.04167,0.006 -1.56175,-0.0228 -0.75547,-0.0582 -1.50825,-0.16205 -2.13022,-0.63512 -0.63039,-0.5549 -1.16885,-1.2443 -1.47303,-2.03176 -0.29302,-0.954 -0.36353,-1.77479 -0.33867,-2.77271 -0.0588,-0.82283 -0.12364,-1.63826 -0.70498,-2.27866 -0.57675,-0.55804 -1.23016,-1.0045 -2.02344,-1.18798 -0.94713,-0.20059 -1.90853,-0.17883 -2.87244,-0.16017 -0.95425,0.007 -1.91285,0.0134 -2.85937,0.14857 -0.92822,0.17538 -1.8122,0.49926 -2.73354,0.70218 -1.14254,0.15358 -2.29424,0.29887 -3.44855,0.29303 -1.0531,0.002 -2.10833,0.026 -3.15966,-0.0462 -1.05736,-0.10269 -2.13824,-0.25488 -3.04338,-0.85462 -0.69815,-0.56962 -1.19844,-1.28417 -1.79981,-1.94761 -0.65708,-0.75457 -1.40829,-1.43789 -1.89965,-2.32315 -0.62244,-1.12827 -1.2081,-2.26775 -1.72335,-3.4495 0,0 4.90026,-2.72247 4.90026,-2.72247 z"/><path style="opacity:1;fill:#000;fill-opacity:1;stroke:none;stroke-width:.26458332;stroke-opacity:1" id="path6065" d="m 117.45388,110.83158 c -1.07119,0.47765 -2.25163,0.55615 -3.36617,0.87076 -0.81045,0.28936 -1.55765,0.68278 -2.32039,1.07116 0.44377,-0.41659 -1.66949,0.8799 -1.10179,0.55603 7.71899,-4.40364 5.33612,-3.14914 3.70448,-2.07328 -0.69754,0.48756 -1.24056,1.14324 -1.82005,1.7562 -0.59356,0.64775 -1.15248,1.33918 -1.60237,2.09485 -0.41469,0.82037 -0.50724,1.73617 -0.56263,2.63957 -0.0487,1.05263 -0.0372,2.10675 -0.0286,3.16009 -0.043,0.70297 0.0953,1.33519 0.57922,1.85648 0.51886,0.37922 1.18005,0.3908 1.79778,0.4211 0.78457,0.0196 1.56961,0.0116 2.35436,0.009 0.84086,-0.004 1.68173,-0.008 2.5226,-0.009 0.89589,-0.003 1.79173,0.005 2.68762,0.004 0.96536,0.042 1.86288,-0.2402 2.70115,-0.69529 1.89067,-0.94281 1.27745,-0.6474 -3.96196,2.29395 -0.11359,0.0638 0.22017,-0.14032 0.32141,-0.22229 0.27991,-0.22666 0.42697,-0.48072 0.57303,-0.80165 0.19434,-0.57964 -0.2861,-0.60028 -0.7372,-0.65729 -0.74341,-0.19749 -1.38673,-0.63161 -1.98505,-1.10108 -0.76775,-0.67516 -1.02099,-1.66003 -1.06563,-2.64498 0.0843,-0.8476 0.48086,-1.52812 1.17052,-2.01209 2.07978,-1.48105 4.18433,-3.23188 6.74957,-3.56197 0.71978,-0.0146 1.30121,-0.45084 1.98425,-0.63483 0.11481,-0.0217 0.22962,-0.0433 0.34442,-0.065 0,0 -4.46054,3.40734 -4.46054,3.40734 v 0 c -0.10671,0.0326 -0.21343,0.0651 -0.32014,0.0977 -0.66352,0.25276 -1.30176,0.53884 -2.02529,0.57551 -0.2866,0.0713 -0.39063,0.0853 -0.66312,0.19982 -0.105,0.0441 -0.40527,0.20756 -0.30714,0.14975 8.07142,-4.75516 5.44961,-3.35913 3.92201,-2.22577 -0.759,0.52908 -1.05554,0.53401 -1.40534,1.52279 -0.0299,0.83278 0.11954,1.65284 0.80987,2.1988 0.56613,0.40661 1.1706,0.76576 1.86666,0.89174 0.72581,0.21828 1.28566,0.64573 1.20361,1.47969 -0.69111,2.66891 -4.19318,3.45699 -6.38352,4.58886 -0.91373,0.37142 -1.86077,0.55562 -2.85173,0.50041 -0.90028,-5.3e-4 -1.8005,0.007 -2.70078,0.006 -0.8385,7.9e-4 -1.677,0.002 -2.51549,0.006 -0.7974,0.005 -1.59639,0.0208 -2.39224,-0.0403 -0.75027,-0.0826 -1.48845,-0.22427 -2.04335,-0.78136 -0.52948,-0.64361 -0.81154,-1.37274 -0.7438,-2.21967 2.6e-4,-1.06061 -0.011,-2.1213 7.9e-4,-3.18183 0.0443,-0.96925 0.13044,-1.94373 0.46419,-2.86328 0.39463,-0.8248 0.96535,-1.52105 1.53071,-2.23626 0.60763,-0.60416 1.12957,-1.28296 1.78541,-1.84023 0.41099,-0.33688 0.23208,-0.21663 0.70109,-0.49163 2.1061,-1.23488 4.08007,-2.5522 6.27212,-3.5621 0.76025,-0.40011 1.56257,-0.7195 2.38876,-0.95606 1.13435,-0.23647 2.27848,-0.45477 3.33223,-0.9611 0,0 -4.4035,3.48016 -4.4035,3.48016 z"/><path style="opacity:1;fill:#000;fill-opacity:1;stroke:none;stroke-width:.25171331;stroke-opacity:1" id="path6067" d="m 126.3923,113.08592 c -0.10386,-1.13597 -0.20288,-2.27208 -0.26651,-3.41147 -0.0437,-0.83265 -0.0522,-1.66664 -0.0562,-2.50036 0.01,-0.93212 0.008,-1.86427 0.006,-2.79642 -0.0305,-0.9405 -0.0131,-1.85238 0.22375,-2.7622 0.14439,-0.75045 0.43041,-1.42539 0.75362,-2.102467 0.28504,-0.7068 0.79135,-1.231255 1.34984,-1.698316 2.55233,-1.85119 3.90903,-3.063061 6.52556,-3.193787 0.74922,-0.02311 1.49889,-0.01081 2.24823,-0.0026 0.86492,0.0061 1.72986,0.0045 2.59479,0.0036 0.78961,0.07627 1.12631,0.675478 1.30521,1.422177 0.13038,0.862881 0.1088,1.732969 -0.0699,2.58418 -0.21323,0.793507 -0.80553,1.233378 -1.40505,1.686523 -0.11722,0.0971 -0.41361,0.34998 -0.5456,0.43013 -1.57532,0.95666 -3.14677,1.92127 -4.74163,2.84078 -0.0978,0.0564 -0.21984,0.042 -0.32505,0.0804 -0.0931,0.034 -0.35168,0.18718 -0.2663,0.13525 1.40619,-0.85527 2.8196,-1.69711 4.22939,-2.54567 -0.58796,0.3231 -0.27195,0.70184 0.0164,1.1385 0.46227,0.5637 1.01232,1.02578 1.61433,1.40874 0.70999,0.31509 1.3799,0.70664 2.06073,1.08352 0.73802,0.33231 1.5349,0.41823 2.32675,0.46576 0.12318,0.004 0.24637,0.008 0.36955,0.0124 0,0 -4.20127,3.20528 -4.20127,3.20528 v 0 c -0.12573,-0.009 -0.25146,-0.0177 -0.37719,-0.0266 -0.84179,-0.0901 -1.68057,-0.24471 -2.44444,-0.65231 -0.68595,-0.39281 -1.39777,-0.72459 -2.08345,-1.11741 -0.63791,-0.44851 -1.24531,-0.95099 -1.72906,-1.58652 -0.38691,-0.57583 -0.85629,-1.24818 -0.39038,-1.93308 1.5617,-0.95201 3.11409,-1.92141 4.68509,-2.85602 0.17866,-0.10628 0.75092,-0.34154 0.57469,-0.23079 -7.26762,4.56742 -5.09258,3.20059 -3.57795,2.19189 0.505,-0.47209 1.18875,-0.73222 1.52865,-1.38265 0.28471,-0.74201 0.26944,-1.539159 0.18244,-2.325378 -0.10456,-0.59253 -0.32034,-0.825169 -0.92052,-0.804139 -0.86251,-0.0033 -1.725,-0.0093 -2.58751,-0.01068 -0.74576,0.0024 -1.49288,-0.0084 -2.23724,0.04792 -2.15235,0.241184 -4.83846,2.382057 2.45799,-2.077018 -0.57783,0.361789 -1.09729,0.810732 -1.45182,1.425336 -0.27497,0.683547 -0.7035,1.275993 -0.79635,2.036559 -0.0154,0.05029 -0.22675,0.73492 -0.23865,0.79165 -0.12572,0.59904 -0.0224,1.22264 -0.054,1.82887 -0.004,0.92988 -0.007,1.85978 0.003,2.78963 -1.8e-4,0.82898 -2.4e-4,1.65816 0.0271,2.48674 0.0436,1.12461 0.10972,2.2502 0.26961,3.3639 0,0 -4.5865,2.55626 -4.5865,2.55626 z"/><path style="opacity:1;fill:#000;fill-opacity:1;stroke:none;stroke-width:.20278019;stroke-opacity:1" id="path6067-3" d="m 152.3194,95.19947 c -0.0801,-0.95642 -0.15639,-1.91296 -0.20544,-2.87226 -0.0337,-0.70104 -0.0402,-1.40321 -0.0433,-2.10515 0.007,-0.78479 0.006,-1.56961 0.005,-2.35443 -0.0235,-0.791844 -0.0101,-1.559587 0.17247,-2.325602 0.1113,-0.631836 0.33177,-1.200102 0.58091,-1.770157 0.21972,-0.595084 0.61,-1.036644 1.04049,-1.429883 1.96741,-1.558593 3.01319,-2.578917 5.03009,-2.68898 0.57751,-0.01945 1.15537,-0.0091 1.73299,-0.0023 0.6667,0.0051 1.33342,0.0038 2.00013,0.0031 0.60865,0.06422 0.8682,0.568713 1.0061,1.19739 0.10049,0.726495 0.0839,1.459058 -0.0539,2.175727 -0.16436,0.668088 -0.62092,1.038432 -1.08304,1.419952 -0.0904,0.08173 -0.31883,0.294661 -0.42057,0.362147 -1.2143,0.805452 -2.42562,1.617592 -3.65497,2.391767 -0.0754,0.04745 -0.16946,0.0354 -0.25056,0.06769 -0.0717,0.02858 -0.27109,0.157594 -0.20528,0.113871 1.08393,-0.720085 2.17343,-1.428865 3.26014,-2.143298 -0.45322,0.272026 -0.20963,0.590907 0.0127,0.958543 0.35633,0.474602 0.78032,0.863653 1.24436,1.18608 0.54729,0.26529 1.06367,0.594953 1.58847,0.912263 0.56888,0.27978 1.18315,0.35213 1.79352,0.39214 0.0949,0.004 0.18991,0.007 0.28486,0.0104 0,0 -3.23845,2.69866 -3.23845,2.69866 v 0 c -0.0969,-0.007 -0.19383,-0.0149 -0.29074,-0.0224 -0.64888,-0.0759 -1.29544,-0.20604 -1.88425,-0.54921 -0.52875,-0.33072 -1.07743,-0.61006 -1.60598,-0.94079 -0.49171,-0.37762 -0.95992,-0.80068 -1.3328,-1.33576 -0.29824,-0.48481 -0.66006,-1.050893 -0.30092,-1.627541 1.2038,-0.801533 2.40043,-1.617714 3.6114,-2.404597 0.13771,-0.08949 0.57883,-0.28756 0.44298,-0.194315 -5.60207,3.845503 -3.9255,2.694705 -2.75798,1.845446 0.38927,-0.397473 0.91632,-0.616494 1.17833,-1.164111 0.21946,-0.62473 0.20769,-1.295883 0.14062,-1.957834 -0.0806,-0.498875 -0.24692,-0.694743 -0.70956,-0.677037 -0.66484,-0.0028 -1.32967,-0.0078 -1.99452,-0.009 -0.57485,0.002 -1.15075,-0.0071 -1.72452,0.04035 -1.65909,0.203062 -3.72962,2.005547 1.89468,-1.748727 -0.44541,0.304605 -0.84582,0.682588 -1.1191,1.200049 -0.21195,0.575506 -0.54228,1.074311 -0.61385,1.714663 -0.0119,0.04234 -0.17478,0.618756 -0.18396,0.666521 -0.0969,0.504357 -0.0172,1.029389 -0.0416,1.539799 -0.003,0.782907 -0.006,1.565825 0.002,2.348714 -1.3e-4,0.69794 -1.8e-4,1.39607 0.0209,2.09369 0.0336,0.94685 0.0846,1.89453 0.20782,2.8322 0,0 -3.53539,2.15222 -3.53539,2.15222 z"/><path style="opacity:1;fill:#000;fill-opacity:1;stroke:none;stroke-width:.14329672;stroke-opacity:1" id="path6067-3-7" d="m 144.34021,105.36459 c -0.0565,-0.67758 -0.11023,-1.35525 -0.14481,-2.03487 -0.0238,-0.49666 -0.0283,-0.99412 -0.0305,-1.49142 0.005,-0.55599 0.004,-1.112 0.004,-1.66801 -0.0166,-0.560991 -0.007,-1.104905 0.12157,-1.647595 0.0785,-0.44763 0.23385,-0.850223 0.40946,-1.254084 0.15487,-0.421592 0.42997,-0.734419 0.73341,-1.013012 1.38676,-1.104199 2.12389,-1.827056 3.54554,-1.905031 0.40707,-0.01378 0.81438,-0.0064 1.22153,-0.0016 0.46993,0.0036 0.93988,0.0027 1.40982,0.0022 0.42902,0.0455 0.61197,0.40291 0.70917,0.848302 0.0708,0.514691 0.0591,1.033682 -0.038,1.541412 -0.11586,0.473313 -0.43767,0.735686 -0.7634,1.005977 -0.0637,0.0579 -0.22474,0.208756 -0.29645,0.256567 -0.85592,0.570629 -1.70974,1.145997 -2.57627,1.694468 -0.0531,0.03362 -0.11944,0.02508 -0.17661,0.04796 -0.0505,0.02025 -0.19108,0.111649 -0.14469,0.08067 0.76402,-0.51015 1.53198,-1.012292 2.29796,-1.518438 -0.31946,0.192719 -0.14776,0.418633 0.009,0.679088 0.25117,0.336236 0.55003,0.611863 0.87711,0.840289 0.38577,0.187947 0.74975,0.421497 1.11966,0.646297 0.40099,0.19822 0.83396,0.24947 1.26419,0.27782 0.0669,0.002 0.13386,0.005 0.20079,0.007 0,0 -2.28267,1.91189 -2.28267,1.91189 v 0 c -0.0683,-0.005 -0.13663,-0.0106 -0.20494,-0.0159 -0.45737,-0.0538 -0.91311,-0.14597 -1.32814,-0.3891 -0.3727,-0.2343 -0.75945,-0.4322 -1.132,-0.66651 -0.34659,-0.26753 -0.67662,-0.56724 -0.93945,-0.94633 -0.21022,-0.34347 -0.46525,-0.744511 -0.21211,-1.153043 0.84852,-0.567853 1.69198,-1.146083 2.54556,-1.703557 0.0971,-0.0634 0.408,-0.203724 0.31224,-0.137665 -3.94871,2.724375 -2.76696,1.909088 -1.94401,1.307422 0.27438,-0.281592 0.64588,-0.43676 0.83057,-0.824723 0.15469,-0.442596 0.14639,-0.91808 0.0991,-1.387045 -0.0568,-0.353433 -0.17404,-0.492197 -0.50014,-0.479653 -0.46862,-0.002 -0.93724,-0.0055 -1.40587,-0.0064 -0.40519,0.0014 -0.81113,-0.005 -1.21556,0.02859 -1.16944,0.14386 -2.62888,1.420846 1.3355,-1.238902 -0.31396,0.2158 -0.59619,0.483586 -0.78882,0.850185 -0.14939,0.407722 -0.38223,0.761105 -0.43268,1.214768 -0.008,0.03 -0.1232,0.438362 -0.12967,0.472202 -0.0683,0.357317 -0.0121,0.72928 -0.0293,1.090884 -0.002,0.554658 -0.004,1.109323 0.001,1.663967 -9e-5,0.49446 -1.3e-4,0.98906 0.0147,1.48329 0.0237,0.6708 0.0596,1.3422 0.14649,2.0065 0,0 -2.49198,1.52476 -2.49198,1.52476 z"/><path style="opacity:1;fill:#000;fill-opacity:1;stroke:none;stroke-width:.26458332;stroke-opacity:1" id="path6103" d="m 171.97863,66.158427 c 0.88265,0.796578 1.81782,1.509667 2.60866,2.401398 0.63189,0.558475 1.03734,1.300963 1.53155,1.972193 0.53903,0.893021 1.00038,1.831546 1.56723,2.707341 0.49107,0.67428 0.71702,1.468964 0.96176,2.252868 0.22998,0.744265 0.29942,1.519823 0.34037,2.293443 0.0167,0.380468 0.0196,0.761302 0.0232,1.142048 0,0 -4.99425,2.549032 -4.99425,2.549032 v 0 c -0.002,-0.374306 -0.003,-0.748659 -0.0136,-1.122846 -0.0272,-0.729025 -0.0695,-1.462707 -0.27317,-2.167806 -0.22509,-0.738444 -0.42276,-1.491376 -0.8714,-2.133623 -0.54201,-0.874753 -1.01523,-1.790751 -1.55741,-2.665976 -0.48711,-0.655582 -0.89241,-1.373818 -1.49379,-1.937187 -0.77228,-0.871612 -1.67791,-1.591018 -2.58677,-2.315769 0,0 4.75759,-2.975116 4.75759,-2.975116 z"/><path style="opacity:1;fill:#000;fill-opacity:1;stroke:none;stroke-width:.26458332;stroke-opacity:1" id="path6105" d="m 176.85885,90.366385 c 1.73527,-1.958057 4.05151,-2.876367 6.40688,-4.18079 0.26682,-0.147769 0.4687,-0.04297 0.72242,0.02604 0.64732,0.456899 0.70504,1.221066 0.75172,1.949085 -0.0156,0.378429 -0.0306,0.99694 -0.41973,1.224574 -4.95301,2.897182 -3.18033,2.645426 -5.44096,2.910679 -0.73471,0.04642 -1.47069,0.154051 -2.14128,-0.195707 -0.31104,-0.226145 -0.44927,-0.534747 -0.58987,-0.877221 0,0 4.91072,-2.734345 4.91072,-2.734345 v 0 c 0.0753,0.215816 0.12629,0.381744 0.34881,0.482436 0.63208,0.14568 1.31012,0.04053 1.93854,-0.07993 1.95609,-0.721857 0.0366,-0.03247 -4.26185,2.546183 -0.30803,0.184788 0.4903,-0.120168 0.61037,-0.41702 0.0366,-0.09053 0.04,-0.191175 0.06,-0.286763 -0.0125,-0.320686 0.0769,-1.167824 -0.33613,-1.241558 -1.54232,0.458296 -5.85397,3.237805 3.84972,-2.34737 0.0698,-0.0402 -0.34727,0.179047 -0.8929,0.675617 -0.1227,0.111667 -0.23469,0.234574 -0.35203,0.351861 0,0 -5.16442,2.194237 -5.16442,2.194237 z"/><flowRoot id="flowRoot6107" transform="scale(0.26458333)" xml:space="preserve" style="font-style:normal;font-weight:400;font-size:24px;line-height:1.25;font-family:sans-serif;letter-spacing:0;word-spacing:0;fill:#000;fill-opacity:1;stroke:none"><flowRegion id="flowRegion6109"><rect id="rect6111" width="354.286" height="198.571" x="32.857" y="37.987"/></flowRegion><flowPara id="flowPara6115"/></flowRoot><flowRoot id="flowRoot6117" transform="scale(0.26458333)" xml:space="preserve" style="font-style:normal;font-weight:400;font-size:24px;line-height:1.25;font-family:sans-serif;letter-spacing:0;word-spacing:0;fill:#000;fill-opacity:1;stroke:none"><flowRegion id="flowRegion6119"><rect id="rect6121" width="118.571" height="27.143" x="127.143" y="110.844"/></flowRegion><flowPara id="flowPara6123"/></flowRoot><path style="opacity:1;fill:#fff;fill-opacity:1;stroke:none;stroke-width:.26458332;stroke-opacity:1" id="path6135" d="m 72.193528,173.52528 a 10.205358,12.284225 0 0 1 -5.106484,10.6411 10.205358,12.284225 0 0 1 -10.20916,-0.008 10.205358,12.284225 0 0 1 -5.095062,-10.64902 l 10.205349,0.0159 z"/><path style="opacity:1;fill:#fff;fill-opacity:1;stroke:none;stroke-width:.26458332;stroke-opacity:1" id="path6137" d="m 136.16489,213.34453 a 27.638956,4.856441 0 0 1 -13.82979,4.20684 27.638956,4.856441 0 0 1 -27.64925,-0.003 27.638956,4.856441 0 0 1 -13.798851,-4.20998 l 27.638931,0.006 z"/><path style="opacity:1;fill:#fff;fill-opacity:1;stroke:none;stroke-width:.26458332;stroke-opacity:1" id="path6139" d="m 154.21436,174.09225 a 36.663689,37.419643 0 0 1 -18.34552,32.41442 36.663689,37.419643 0 0 1 -36.67735,-0.0242 36.663689,37.419643 0 0 1 -18.304481,-32.43856 l 36.663661,0.0483 z"/><path style="opacity:1;fill:#fff;fill-opacity:1;stroke:none;stroke-width:.26458332;stroke-opacity:1" id="path6141" d="m -83.532661,31.217262 a 32.127975,3.7797618 0 0 1 -16.075968,3.274183 32.127975,3.7797618 0 0 1 -32.139951,-0.0024 32.127975,3.7797618 0 0 1 -16.04001,-3.276623 l 32.12795,0.0049 z"/><rect style="opacity:1;fill:#fff;fill-opacity:1;stroke:none;stroke-width:.26458332;stroke-opacity:1" id="rect6145" width="44.979" height="38.554" x="111.125" y="234.19"/></g></svg>