<svg xmlns="http://www.w3.org/2000/svg" xmlns:svg="http://www.w3.org/2000/svg" id="Capa_1" width="88.107" height="81.027" x="0" y="0" version="1.1" viewBox="0 0 88.107 81.027" xml:space="preserve"><metadata id="metadata3921"/><g id="g3884" transform="matrix(0.58787277,0,0,0.58787277,-1.4109766,0)"><g id="g3838"><g id="g3822"><path id="path3818" d="m 96.575,81.31 c 0,19.176 0,34.936 -34.724,34.721 H 61.215 C 26.494,118.414 26.494,100.486 26.494,81.31 v -0.566 c 0,-19.176 15.545,-34.721 34.721,-34.721 h 0.636 c 19.177,0 34.724,15.545 34.724,34.721 z" style="clip-rule:evenodd;fill:#8c8b88;fill-rule:evenodd"/><path id="path3820" d="m 88.702,81.469 c 0,19.079 7.873,34.389 -25.977,35.878 v 0 c -33.986,2 -25.977,-16.799 -25.977,-35.878 v -0.563 c 0,-19.077 11.524,-34.542 25.74,-34.542 h 0.471 c 14.218,0 25.743,15.465 25.743,34.542 z" style="clip-rule:evenodd;fill:#e2e2e2;fill-rule:evenodd"/></g><g id="g3836"><g id="g3828"><path id="path3824" d="m 49.704,95.011 c 4.614,7.734 4.903,20.135 -2.177,24.357 -7.079,4.225 -18.849,-1.328 -23.463,-9.062 -4.614,-7.735 -6.349,-14.237 4.465,-21.653 9.164,-6.283 16.56,-1.377 21.175,6.358 z" style="clip-rule:evenodd;fill:#9d9d9d;fill-rule:evenodd"/><path id="path3826" d="m 50.602,96.685 c 4.172,6.993 3.931,18.506 -3.148,22.729 -7.08,4.223 -18.319,-0.439 -22.491,-7.434 -4.173,-6.992 -5.588,-12.963 5.265,-20.311 9.198,-6.227 16.2,-1.979 20.374,5.016 z" style="clip-rule:evenodd;fill:#8c8b88;fill-rule:evenodd"/></g><g id="g3834"><path id="path3830" d="m 75.902,95.011 c -4.614,7.734 -4.903,20.135 2.177,24.357 7.079,4.225 18.849,-1.328 23.463,-9.062 4.614,-7.735 6.349,-14.237 -4.465,-21.653 -9.164,-6.283 -16.559,-1.377 -21.175,6.358 z" style="clip-rule:evenodd;fill:#9d9d9d;fill-rule:evenodd"/><path id="path3832" d="m 75.005,96.685 c -4.172,6.993 -3.931,18.506 3.148,22.729 7.08,4.223 18.319,-0.439 22.491,-7.434 4.173,-6.992 5.588,-12.963 -5.265,-20.311 -9.198,-6.227 -16.2,-1.979 -20.374,5.016 z" style="clip-rule:evenodd;fill:#8c8b88;fill-rule:evenodd"/></g></g></g><g id="g3882"><g id="g3854"><g id="g3850"><circle id="circle3840" cx="96.81" cy="20.857" r="20.857" style="clip-rule:evenodd;fill:#9d9d9d;fill-rule:evenodd"/><g id="g3846"><circle id="circle3842" cx="24.21" cy="20.857" r="20.856" style="clip-rule:evenodd;fill:#9d9d9d;fill-rule:evenodd"/><ellipse id="ellipse3844" cx="25.168" cy="28.202" rx="15.644" ry="14.791" style="clip-rule:evenodd;fill:#e2e2e2;fill-rule:evenodd"/></g><ellipse id="ellipse3848" cx="96.575" cy="28.202" rx="15.644" ry="14.791" style="clip-rule:evenodd;fill:#e2e2e2;fill-rule:evenodd"/></g><path id="path3852" d="M 24.21,38.21 C 24.21,19.53 40.921,4.388 61.535,4.388 82.15,4.388 98.86,19.53 98.86,38.21 98.86,56.89 89.613,72.032 61.535,72.032 31.559,72.032 24.21,56.89 24.21,38.21 Z" style="clip-rule:evenodd;fill:#9d9d9d;fill-rule:evenodd"/></g><g id="g3880"><g id="g3868"><g id="g3860"><circle id="circle3856" cx="42.522" cy="39.882" r="4.074" style="clip-rule:evenodd;fill:#434849;fill-rule:evenodd"/><path id="path3858" d="m 42.693,39.095 c 0,-0.85 0.686,-1.541 1.538,-1.541 0.852,0 1.538,0.692 1.538,1.541 0,0.852 -0.686,1.542 -1.538,1.542 -0.852,0 -1.538,-0.691 -1.538,-1.542 z" style="clip-rule:evenodd;fill:#fff;fill-rule:evenodd"/></g><g id="g3866"><circle id="circle3862" cx="80.027" cy="39.882" r="4.074" style="clip-rule:evenodd;fill:#434849;fill-rule:evenodd"/><path id="path3864" d="m 80.198,39.095 c 0,-0.85 0.687,-1.541 1.539,-1.541 0.853,0 1.538,0.692 1.538,1.541 0,0.852 -0.686,1.542 -1.538,1.542 -0.852,0 -1.539,-0.691 -1.539,-1.542 z" style="clip-rule:evenodd;fill:#fff;fill-rule:evenodd"/></g></g><g id="g3878"><path id="path3870" d="m 68.598,55.45 c 0,3.12 -2.529,5.649 -5.65,5.649 h -2.823 c -3.121,0 -5.65,-2.529 -5.65,-5.649 V 41.458 c 0,-3.121 2.529,-5.65 5.65,-5.65 h 2.823 c 3.121,0 5.65,2.529 5.65,5.65 z" style="clip-rule:evenodd;fill:#434849;fill-rule:evenodd"/><g id="g3876"><circle id="circle3872" cx="59.346" cy="57.946" r=".933" style="clip-rule:evenodd;fill-rule:evenodd"/><circle id="circle3874" cx="63.659" cy="57.946" r=".934" style="clip-rule:evenodd;fill-rule:evenodd"/></g></g></g></g></g><g id="g3974" transform="matrix(0.09607518,0,0,0.09607518,44.120602,21.893277)"><path style="fill:#ffa812" id="path3945" d="m 231.52734,405.25391 c -4.20703,0 -7.61718,3.41015 -7.61718,7.61328 v 66.89843 l -36.78125,-12.78906 c -3.97266,-1.38281 -8.3125,0.71875 -9.69532,4.69141 -1.38281,3.97265 0.71875,8.3125 4.69532,9.69531 l 24.55078,8.53516 -24.21485,7.17969 c -4.03515,1.19531 -6.33203,5.43359 -5.13672,9.46875 0.98047,3.30859 4.01172,5.45312 7.29688,5.45312 0.71875,0 1.44531,-0.10156 2.16797,-0.31641 l 46.90234,-13.90625 c 3.23047,-0.95703 5.44922,-3.92578 5.44922,-7.30078 v -77.60937 c 0,-4.20313 -3.41016,-7.61328 -7.61719,-7.61328 z m 0,0"/><path style="fill:#ffa812" id="path3947" d="m 316.80078,397.21094 c -4.20703,0 -7.61328,3.41015 -7.61328,7.61328 v 74.9414 l -36.78516,-12.78906 c -3.96875,-1.38281 -8.3125,0.71875 -9.6914,4.69141 -1.38282,3.97265 0.71875,8.3125 4.6914,9.69531 l 24.55078,8.53516 -24.21484,7.17969 c -4.03125,1.19531 -6.33203,5.43359 -5.13672,9.46875 0.98047,3.30859 4.01172,5.45312 7.30078,5.45312 0.71485,0 1.44532,-0.10547 2.16797,-0.31641 l 46.89844,-13.90625 c 3.23437,-0.95703 5.45312,-3.92968 5.45312,-7.30078 v -85.65234 c -0.004,-4.20313 -3.41406,-7.61328 -7.62109,-7.61328 z m 0,0"/><path style="fill:#dd8858" id="path3949" d="m 92.976562,13.816406 c 64.988278,-39.789062 124.812498,13.375 139.964848,70.429688 15.15625,57.058596 104.30859,47.249996 144.42578,132.835936 40.11718,85.58203 0,197.91406 -118.57032,197.91406 C 140.22656,414.99609 125.07031,306.25 135.76953,259.88281 146.46875,213.51562 127.78516,173.5 85.84375,143.73437 34.738281,107.46484 49.292969,40.5625 92.976562,13.816406 Z m 0,0"/><path style="fill:#d97f4a" id="path3951" d="m 258.79687,378.4375 c -90.38671,0 -120.67187,-54.05469 -125.22656,-104.63672 -4.92578,51.15234 17.33203,141.19531 125.22656,141.19531 94.85938,0 139.5,-71.90234 133.01563,-144.48047 -5.64453,62.23047 -50.17969,107.92188 -133.01563,107.92188 z m 0,0"/><path style="fill:#ffa812" id="path3953" d="m 53.007812,104.52344 c -17.015624,32.30859 -43.414062,93.96484 -52.46875,178.5664 -0.742187,6.9336 8.917969,9.38672 11.550782,2.9336 17.125,-41.96875 47.605468,-110.6836 80.679687,-157.08594 6.839844,-9.59766 5.359375,-22.8125 -3.355469,-30.753906 -11.292968,-10.289063 -29.285156,-7.175782 -36.40625,6.339846 z m 0,0"/><path style="fill:#ff9a00" id="path3955" d="M 89.414062,98.183594 C 85.160156,94.308594 79.957031,92.335938 74.738281,92.101562 80.59375,100.06641 80.925781,111.08984 75,119.40234 47.925781,157.38672 22.59375,210.3125 4.898438,251.28906 c -1.703126,10.20313 -3.171876,20.80469 -4.351563,31.78906 -0.742187,6.92969 8.917969,9.375 11.550781,2.92579 17.125,-41.97266 47.601563,-110.67188 80.667969,-157.06641 6.84375,-9.59766 5.359375,-22.8125 -3.351563,-30.753906 z m 0,0"/><path style="fill:#433f43" id="path3957" d="m 139.76172,57.625 c -8.66797,0 -15.46094,8.433594 -15.46094,19.199219 0,10.765625 6.79297,19.199219 15.46094,19.199219 8.66797,0 15.45703,-8.433594 15.45703,-19.199219 0,-10.765625 -6.78906,-19.199219 -15.45703,-19.199219 z m 0,0"/></g></svg>