<svg xmlns="http://www.w3.org/2000/svg" xmlns:xlink="http://www.w3.org/1999/xlink" width="50pt" height="96" version="1.1" viewBox="0 0 50 72"><g id="surface1"><path style="stroke:none;fill-rule:nonzero;fill:#000;fill-opacity:1" d="M 44.933594 35.257812 L 4.554688 35.257812 C 2.042969 35.257812 0 37.265625 0 39.738281 C 0 42.207031 2.042969 44.214844 4.554688 44.214844 L 44.933594 44.214844 C 47.441406 44.214844 49.484375 42.207031 49.484375 39.738281 C 49.484375 37.265625 47.441406 35.257812 44.933594 35.257812 Z M 44.933594 35.257812"/><path style="stroke:none;fill-rule:nonzero;fill:#000;fill-opacity:1" d="M 44.933594 49 L 4.554688 49 C 2.042969 49 0 51.007812 0 53.480469 C 0 55.949219 2.042969 57.960938 4.554688 57.960938 L 44.933594 57.960938 C 47.441406 57.960938 49.484375 55.949219 49.484375 53.480469 C 49.484375 51.007812 47.441406 49 44.933594 49 Z M 44.933594 49"/><path style="stroke:none;fill-rule:nonzero;fill:#000;fill-opacity:1" d="M 44.933594 62.742188 L 4.554688 62.742188 C 2.042969 62.742188 0 64.753906 0 67.222656 C 0 69.691406 2.042969 71.699219 4.554688 71.699219 L 44.933594 71.699219 C 47.441406 71.699219 49.484375 69.691406 49.484375 67.222656 C 49.484375 64.753906 47.441406 62.742188 44.933594 62.742188 Z M 44.933594 62.742188"/><path style="stroke:none;fill-rule:nonzero;fill:#92a3b7;fill-opacity:1" d="M 2.566406 71.0625 C -0.296875 69.5625 -0.621094 65.679688 1.949219 63.753906 L 2.941406 63.011719 L 24.085938 62.925781 C 37.933594 62.875 45.570312 62.941406 46.207031 63.125 C 46.742188 63.277344 47.609375 63.839844 48.136719 64.375 C 49.046875 65.292969 49.097656 65.453125 49.097656 67.214844 C 49.097656 68.917969 49.023438 69.160156 48.269531 69.949219 C 46.664062 71.628906 47.636719 71.5625 24.597656 71.5625 C 4.621094 71.5625 3.476562 71.539062 2.566406 71.0625 Z M 2.566406 71.0625"/><path style="stroke:none;fill-rule:nonzero;fill:#b2b0bc;fill-opacity:1" d="M 32.277344 43.417969 L 40.304688 43.417969 C 40.304688 36.78125 33.753906 32.84375 33.753906 32.84375 L 16.835938 32.84375 C 16.835938 32.84375 10.285156 36.78125 10.285156 43.417969 L 18.308594 43.417969 L 25.292969 40.644531 Z M 32.277344 43.417969"/><path style="stroke:none;fill-rule:nonzero;fill:#a19dae;fill-opacity:1" d="M 19.824219 32.84375 L 16.835938 32.84375 C 16.835938 32.84375 10.285156 36.78125 10.285156 43.417969 L 13.269531 43.417969 C 13.269531 36.78125 19.824219 32.84375 19.824219 32.84375 Z M 19.824219 32.84375"/><path style="stroke:none;fill-rule:nonzero;fill:#c7c5cb;fill-opacity:1" d="M 18.3125 4.621094 C 13.101562 -2.191406 3.355469 -0.507812 2.0625 3.511719 C 1.90625 4.007812 2.042969 4.542969 2.410156 4.90625 C 2.964844 5.449219 2.953125 6.332031 2.386719 6.871094 C 1.242188 7.960938 -0.171875 10.226562 0.984375 14.339844 C 1.996094 17.941406 6.589844 18.144531 10.378906 17.644531 Z M 18.3125 4.621094"/><path style="stroke:none;fill-rule:nonzero;fill:#c7c5cb;fill-opacity:1" d="M 32.277344 4.621094 C 37.488281 -2.191406 47.234375 -0.507812 48.523438 3.511719 C 48.683594 4.007812 48.546875 4.542969 48.175781 4.90625 C 47.625 5.449219 47.636719 6.332031 48.203125 6.871094 C 49.347656 7.960938 50.761719 10.226562 49.605469 14.339844 C 48.59375 17.941406 44 18.144531 40.207031 17.644531 Z M 32.277344 4.621094"/><path style="stroke:none;fill-rule:nonzero;fill:#b2b0bc;fill-opacity:1" d="M 44.664062 17.757812 C 44.074219 13.875 42.277344 10.082031 39.53125 7.039062 C 37.921875 5.253906 36.066406 3.816406 34.042969 2.757812 C 33.414062 3.292969 32.820312 3.910156 32.277344 4.621094 L 40.207031 17.644531 C 41.660156 17.835938 43.226562 17.921875 44.664062 17.757812 Z M 44.664062 17.757812"/><path style="stroke:none;fill-rule:nonzero;fill:#b2b0bc;fill-opacity:1" d="M 11.058594 7.039062 C 8.3125 10.082031 6.511719 13.875 5.925781 17.757812 C 7.363281 17.921875 8.929688 17.835938 10.378906 17.644531 L 18.3125 4.621094 C 17.769531 3.910156 17.175781 3.292969 16.546875 2.757812 C 14.519531 3.816406 12.667969 5.253906 11.058594 7.039062 Z M 11.058594 7.039062"/><path style="stroke:none;fill-rule:nonzero;fill:#ff9db0;fill-opacity:1" d="M 43.214844 10.007812 C 43.214844 12.425781 41.226562 14.382812 38.773438 14.382812 C 36.316406 14.382812 34.324219 12.425781 34.324219 10.007812 C 34.324219 7.59375 36.316406 5.636719 38.773438 5.636719 C 41.226562 5.636719 43.214844 7.59375 43.214844 10.007812 Z M 43.214844 10.007812"/><path style="stroke:none;fill-rule:nonzero;fill:#ff9db0;fill-opacity:1" d="M 16.261719 10.007812 C 16.261719 12.425781 14.273438 14.382812 11.816406 14.382812 C 9.363281 14.382812 7.371094 12.425781 7.371094 10.007812 C 7.371094 7.59375 9.363281 5.636719 11.816406 5.636719 C 14.273438 5.636719 16.261719 7.59375 16.261719 10.007812 Z M 16.261719 10.007812"/><path style="stroke:none;fill-rule:nonzero;fill:#ff889e;fill-opacity:1" d="M 42.796875 11.867188 C 41.945312 10.128906 40.847656 8.5 39.53125 7.039062 C 39.097656 6.558594 38.644531 6.105469 38.179688 5.675781 C 36.003906 5.960938 34.324219 7.789062 34.324219 10.007812 C 34.324219 12.425781 36.316406 14.382812 38.773438 14.382812 C 40.554688 14.382812 42.085938 13.351562 42.796875 11.867188 Z M 42.796875 11.867188"/><path style="stroke:none;fill-rule:nonzero;fill:#ff889e;fill-opacity:1" d="M 11.058594 7.039062 C 9.738281 8.5 8.644531 10.128906 7.792969 11.867188 C 8.503906 13.351562 10.035156 14.382812 11.816406 14.382812 C 14.273438 14.382812 16.261719 12.425781 16.261719 10.007812 C 16.261719 7.789062 14.585938 5.960938 12.410156 5.675781 C 11.941406 6.105469 11.492188 6.558594 11.058594 7.039062 Z M 11.058594 7.039062"/><path style="stroke:none;fill-rule:nonzero;fill:#c7c5cb;fill-opacity:1" d="M 25.292969 34.222656 C -1.105469 34.222656 6.417969 3.0625 25.292969 3.0625 C 44.171875 3.0625 51.695312 34.222656 25.292969 34.222656 Z M 25.292969 34.222656"/><path style="stroke:none;fill-rule:nonzero;fill:#5c586f;fill-opacity:1" d="M 29.820312 17.851562 L 29.621094 16.859375 C 29.210938 14.832031 27.398438 13.367188 25.292969 13.367188 C 23.191406 13.367188 21.378906 14.828125 20.964844 16.859375 L 20.769531 17.851562 C 20.222656 20.53125 22.3125 23.039062 25.09375 23.039062 L 25.496094 23.039062 C 28.277344 23.039062 30.363281 20.53125 29.820312 17.851562 Z M 29.820312 17.851562"/><path style="stroke:none;fill-rule:nonzero;fill:#423e4f;fill-opacity:1" d="M 16.835938 15.5625 C 15.378906 15.5625 14.199219 16.726562 14.199219 18.160156 C 14.199219 18.566406 14.53125 18.894531 14.945312 18.894531 C 15.359375 18.894531 15.691406 18.566406 15.691406 18.160156 C 15.691406 17.535156 16.203125 17.03125 16.835938 17.03125 C 17.46875 17.03125 17.980469 17.535156 17.980469 18.160156 C 17.980469 18.566406 18.316406 18.894531 18.730469 18.894531 C 19.140625 18.894531 19.476562 18.566406 19.476562 18.160156 C 19.476562 16.726562 18.292969 15.5625 16.835938 15.5625 Z M 16.835938 15.5625"/><path style="stroke:none;fill-rule:nonzero;fill:#423e4f;fill-opacity:1" d="M 33.753906 15.5625 C 32.296875 15.5625 31.113281 16.726562 31.113281 18.160156 C 31.113281 18.566406 31.449219 18.894531 31.859375 18.894531 C 32.273438 18.894531 32.605469 18.566406 32.605469 18.160156 C 32.605469 17.535156 33.121094 17.03125 33.753906 17.03125 C 34.386719 17.03125 34.898438 17.535156 34.898438 18.160156 C 34.898438 18.566406 35.230469 18.894531 35.644531 18.894531 C 36.058594 18.894531 36.390625 18.566406 36.390625 18.160156 C 36.390625 16.726562 35.207031 15.5625 33.753906 15.5625 Z M 33.753906 15.5625"/><path style="stroke:none;fill-rule:nonzero;fill:#423e4f;fill-opacity:1" d="M 28.816406 24.46875 C 28.40625 24.46875 28.074219 24.792969 28.074219 25.199219 C 28.074219 25.75 27.617188 26.195312 27.058594 26.195312 C 26.496094 26.195312 26.042969 25.75 26.042969 25.199219 C 26.042969 24.792969 25.707031 24.46875 25.292969 24.46875 C 24.882812 24.46875 24.546875 24.792969 24.546875 25.199219 C 24.546875 25.75 24.089844 26.195312 23.53125 26.195312 C 22.972656 26.195312 22.515625 25.75 22.515625 25.199219 C 22.515625 24.792969 22.183594 24.46875 21.769531 24.46875 C 21.355469 24.46875 21.023438 24.792969 21.023438 25.199219 C 21.023438 26.5625 22.148438 27.667969 23.53125 27.667969 C 24.21875 27.667969 24.839844 27.394531 25.292969 26.953125 C 25.75 27.394531 26.371094 27.667969 27.058594 27.667969 C 28.441406 27.667969 29.5625 26.5625 29.5625 25.199219 C 29.566406 24.792969 29.230469 24.46875 28.816406 24.46875 Z M 28.816406 24.46875"/><path style="stroke:none;fill-rule:nonzero;fill:#e8e8e8;fill-opacity:1" d="M 38.941406 22.335938 C 38.941406 20.804688 37.355469 19.5625 35.402344 19.5625 C 33.445312 19.5625 31.859375 20.804688 31.859375 22.335938 C 31.859375 23.867188 33.445312 25.109375 35.402344 25.109375 C 37.355469 25.109375 38.941406 23.867188 38.941406 22.335938 Z M 38.941406 22.335938"/><path style="stroke:none;fill-rule:nonzero;fill:#e8e8e8;fill-opacity:1" d="M 18.730469 22.335938 C 18.730469 20.804688 17.144531 19.5625 15.1875 19.5625 C 13.230469 19.5625 11.648438 20.804688 11.648438 22.335938 C 11.648438 23.867188 13.230469 25.109375 15.1875 25.109375 C 17.144531 25.109375 18.730469 23.867188 18.730469 22.335938 Z M 18.730469 22.335938"/><path style="stroke:none;fill-rule:nonzero;fill:#e8e8e8;fill-opacity:1" d="M 32.277344 43.417969 L 18.308594 43.417969 C 18.996094 40.246094 21.863281 37.867188 25.292969 37.867188 C 28.726562 37.867188 31.589844 40.246094 32.277344 43.417969 Z M 32.277344 43.417969"/><path style="stroke:none;fill-rule:nonzero;fill:#c7c5cb;fill-opacity:1" d="M 2.40625 57.203125 C -0.328125 55.558594 -0.640625 52.394531 1.71875 50.296875 C 2.46875 49.636719 3.171875 49.285156 3.996094 49.167969 C 4.65625 49.074219 14.386719 49.035156 25.625 49.078125 C 45.664062 49.160156 46.078125 49.171875 47.023438 49.722656 C 49.917969 51.390625 50.035156 55.492188 47.238281 57.171875 C 46.355469 57.703125 45.804688 57.714844 24.796875 57.714844 C 4.191406 57.714844 3.222656 57.691406 2.40625 57.203125 Z M 2.40625 57.203125"/><path style="stroke:none;fill-rule:nonzero;fill:#c7c5cb;fill-opacity:1" d="M 9.597656 71.320312 C 3.902344 71.179688 2.851562 71.085938 2.214844 70.675781 C -0.0820312 69.195312 -0.238281 65.824219 1.902344 63.972656 L 2.863281 63.144531 L 24.40625 63.144531 C 48.03125 63.144531 46.757812 63.058594 48.234375 64.789062 C 48.839844 65.488281 48.957031 65.898438 48.957031 67.230469 C 48.957031 68.628906 48.855469 68.949219 48.105469 69.785156 C 47.609375 70.339844 46.828125 70.851562 46.242188 70.996094 C 44.996094 71.316406 18.660156 71.546875 9.597656 71.320312 Z M 9.597656 71.320312"/><path style="stroke:none;fill-rule:nonzero;fill:#c7c5cb;fill-opacity:1" d="M 10.390625 57.453125 L 2.609375 57.308594 L 1.871094 56.628906 C -0.378906 54.558594 -0.0859375 51.65625 2.546875 49.914062 L 3.480469 49.300781 L 24.214844 49.304688 C 35.882812 49.308594 45.441406 49.421875 46.0625 49.5625 C 49.074219 50.246094 50.128906 54.351562 47.839844 56.507812 L 46.992188 57.308594 L 38.933594 57.480469 C 29.863281 57.675781 21.800781 57.667969 10.390625 57.453125 Z M 10.390625 57.453125"/><path style="stroke:none;fill-rule:nonzero;fill:#c7c5cb;fill-opacity:1" d="M 2.566406 43.515625 C 0.132812 42.253906 -0.570312 39.277344 1.066406 37.171875 C 2.472656 35.355469 1.179688 35.449219 24.675781 35.449219 C 43.757812 35.449219 46.074219 35.496094 46.921875 35.886719 C 48.308594 36.539062 49.050781 37.722656 49.175781 39.503906 C 49.296875 41.179688 48.71875 42.339844 47.214844 43.4375 C 46.441406 44 46.257812 44.003906 25.105469 44.078125 L 3.777344 44.148438 Z M 2.566406 43.515625"/></g></svg>